{
	"asset":{
		"generator":"Khronos glTF Blender I/O v4.5.47",
		"version":"2.0"
	},
	"extensionsUsed":[
		"KHR_materials_specular",
		"KHR_materials_ior"
	],
	"scene":0,
	"scenes":[
		{
			"name":"Scene",
			"nodes":[
				7
			]
		}
	],
	"nodes":[
		{
			"mesh":0,
			"name":"Box_Mat_0",
			"rotation":[
				0,
				0.4544028639793396,
				0,
				0.8907963037490845
			],
			"translation":[
				152.03030395507812,
				-203.60630798339844,
				-117.06468200683594
			]
		},
		{
			"children":[
				0
			],
			"name":"Box",
			"scale":[
				1.0551725625991821,
				1.0551725625991821,
				1.0551725625991821
			],
			"translation":[
				-83.18158721923828,
				169.75823974609375,
				-5.814495580125367e-06
			]
		},
		{
			"name":"FrontPanel",
			"scale":[
				1.0551725625991821,
				1.0551725625991821,
				1.0551725625991821
			],
			"translation":[
				83.19293975830078,
				177.16981506347656,
				0
			]
		},
		{
			"name":"Plane",
			"scale":[
				1.0551725625991821,
				1.0551725625991821,
				1.0551725625991821
			],
			"translation":[
				88.237548828125,
				166.3600616455078,
				3.609556188166607e-06
			]
		},
		{
			"children":[
				3
			],
			"name":"Subdivision_Surface",
			"translation":[
				4.768374310515355e-06,
				0,
				-2.8610222670977237e-06
			]
		},
		{
			"children":[
				1,
				2,
				4
			],
			"name":"RootNode",
			"translation":[
				4.768374310515355e-06,
				0,
				-2.8610222670977237e-06
			]
		},
		{
			"children":[
				5
			],
			"name":"6331170ef29543bb825e64d8c7b457d5.fbx",
			"rotation":[
				0.70710688829422,
				0,
				0,
				0.7071066498756409
			],
			"translation":[
				0,
				2.8610199933609692e-06,
				0
			]
		},
		{
			"children":[
				6
			],
			"name":"Sketchfab_model",
			"rotation":[
				-0.6284580230712891,
				-0.3240998387336731,
				-0.3240998387336731,
				0.6284578442573547
			],
			"scale":[
				0.0023463922552764416,
				0.0023463922552764416,
				0.0023463922552764416
			],
			"translation":[
				-0.16758333146572113,
				0,
				0.03931456804275513
			]
		}
	],
	"materials":[
		{
			"doubleSided":true,
			"extensions":{
				"KHR_materials_specular":{
					"specularColorFactor":[
						0.0,
						0.0,
						0.0
					]
				},
				"KHR_materials_ior":{
					"ior":1000
				}
			},
			"name":"material",
			"pbrMetallicRoughness":{
				"baseColorTexture":{
					"index":0
				},
				"metallicFactor":0,
				"roughnessFactor":0.9524317383766174
			}
		},
		{
			"doubleSided":true,
			"emissiveFactor":[
				0.870807945728302,
				0.870807945728302,
				0.870807945728302
			],
			"emissiveTexture":{
				"index":1
			},
			"extensions":{
				"KHR_materials_specular":{
					"specularColorFactor":[
						0.0,
						0.0,
						0.0
					]
				},
				"KHR_materials_ior":{
					"ior":1000
				}
			},
			"name":"Plane__0",
			"pbrMetallicRoughness":{
				"baseColorFactor":[
					0.39805638790130615,
					0.39805638790130615,
					0.39805638790130615,
					1
				],
				"baseColorTexture":{
					"index":2
				},
				"metallicFactor":0,
				"roughnessFactor":0.6000000238418579
			}
		},
		{
			"doubleSided":true,
			"extensions":{
				"KHR_materials_specular":{
					"specularColorFactor":[
						0.0,
						0.0,
						0.0
					]
				},
				"KHR_materials_ior":{
					"ior":1000
				}
			},
			"name":"Mat_0",
			"pbrMetallicRoughness":{
				"baseColorTexture":{
					"index":3
				},
				"metallicFactor":0,
				"roughnessFactor":0.9524317383766174
			}
		}
	],
	"meshes":[
		{
			"name":"Box_Mat_0",
			"primitives":[
				{
					"attributes":{
						"POSITION":0,
						"NORMAL":1,
						"TEXCOORD_0":2
					},
					"indices":3,
					"material":0
				},
				{
					"attributes":{
						"POSITION":4,
						"NORMAL":5,
						"TEXCOORD_0":6
					},
					"indices":7,
					"material":1
				},
				{
					"attributes":{
						"POSITION":8,
						"NORMAL":9,
						"TEXCOORD_0":10
					},
					"indices":11,
					"material":2
				}
			]
		}
	],
	"textures":[
		{
			"sampler":0,
			"source":0
		},
		{
			"sampler":0,
			"source":1
		},
		{
			"sampler":0,
			"source":1
		},
		{
			"sampler":0,
			"source":2
		}
	],
	"images":[
		{
			"mimeType":"image/jpeg",
			"name":"material_diffuse",
			"uri":"material_diffuse.jpg"
		},
		{
			"mimeType":"image/jpeg",
			"name":"Plane__0_diffuse",
			"uri":"Plane__0_diffuse.jpg"
		},
		{
			"mimeType":"image/jpeg",
			"name":"Mat_0_diffuse",
			"uri":"Mat_0_diffuse.jpg"
		}
	],
	"accessors":[
		{
			"bufferView":0,
			"componentType":5126,
			"count":1719,
			"max":[
				27.188913345336914,
				193.6738739013672,
				138.9882049560547
			],
			"min":[
				-203.5037384033203,
				-89.41014099121094,
				-153.4443817138672
			],
			"type":"VEC3"
		},
		{
			"bufferView":1,
			"componentType":5126,
			"count":1719,
			"type":"VEC3"
		},
		{
			"bufferView":2,
			"componentType":5126,
			"count":1719,
			"type":"VEC2"
		},
		{
			"bufferView":3,
			"componentType":5123,
			"count":4614,
			"type":"SCALAR"
		},
		{
			"bufferView":4,
			"componentType":5126,
			"count":428,
			"max":[
				42.17607879638672,
				164.8605194091797,
				110.27188110351562
			],
			"min":[
				32.73162078857422,
				-27.13946533203125,
				-124.72810363769531
			],
			"type":"VEC3"
		},
		{
			"bufferView":5,
			"componentType":5126,
			"count":428,
			"type":"VEC3"
		},
		{
			"bufferView":6,
			"componentType":5126,
			"count":428,
			"type":"VEC2"
		},
		{
			"bufferView":7,
			"componentType":5123,
			"count":2304,
			"type":"SCALAR"
		},
		{
			"bufferView":8,
			"componentType":5126,
			"count":1945,
			"max":[
				38.69605255126953,
				193.67384338378906,
				138.9881591796875
			],
			"min":[
				17.269052505493164,
				-35.46375274658203,
				-153.44439697265625
			],
			"type":"VEC3"
		},
		{
			"bufferView":9,
			"componentType":5126,
			"count":1945,
			"type":"VEC3"
		},
		{
			"bufferView":10,
			"componentType":5126,
			"count":1945,
			"type":"VEC2"
		},
		{
			"bufferView":11,
			"componentType":5123,
			"count":5058,
			"type":"SCALAR"
		}
	],
	"bufferViews":[
		{
			"buffer":0,
			"byteLength":20628,
			"byteOffset":0,
			"target":34962
		},
		{
			"buffer":0,
			"byteLength":20628,
			"byteOffset":20628,
			"target":34962
		},
		{
			"buffer":0,
			"byteLength":13752,
			"byteOffset":41256,
			"target":34962
		},
		{
			"buffer":0,
			"byteLength":9228,
			"byteOffset":55008,
			"target":34963
		},
		{
			"buffer":0,
			"byteLength":5136,
			"byteOffset":64236,
			"target":34962
		},
		{
			"buffer":0,
			"byteLength":5136,
			"byteOffset":69372,
			"target":34962
		},
		{
			"buffer":0,
			"byteLength":3424,
			"byteOffset":74508,
			"target":34962
		},
		{
			"buffer":0,
			"byteLength":4608,
			"byteOffset":77932,
			"target":34963
		},
		{
			"buffer":0,
			"byteLength":23340,
			"byteOffset":82540,
			"target":34962
		},
		{
			"buffer":0,
			"byteLength":23340,
			"byteOffset":105880,
			"target":34962
		},
		{
			"buffer":0,
			"byteLength":15560,
			"byteOffset":129220,
			"target":34962
		},
		{
			"buffer":0,
			"byteLength":10116,
			"byteOffset":144780,
			"target":34963
		}
	],
	"samplers":[
		{
			"magFilter":9729,
			"minFilter":9987
		}
	],
	"buffers":[
		{
			"byteLength":154896,
			"uri":"retroComputer.bin"
		}
	]
}
