<?xml version="1.0" encoding="UTF-8"?>
<svg id="Layer_1" data-name="Layer 1" xmlns="http://www.w3.org/2000/svg" viewBox="0 0 598.01 281.4">
  <defs>
    <style>
      .cls-1 {
        fill: currentColor;
      }
    </style>
  </defs>
  <path class="cls-1" d="M89,49.66c-.5-.38,1.31-4.1,2.8-6.53,0,0,.09-.15.17-.27.7-1.09,2.72-3.92,8.47-8.65,2.79-2.3,5.25-3.98,9.2-6.68,2.18-1.49,3.07-2.04,4.48-2.99,6.83-4.56,13.64-10.11,13.6-10.17-.06-.08-15.5,7.93-14.92,16.78.18,2.67,1.53,4.05,1.53,4.05.07.06.57.55,1.09.78,2.4,1.05,7.32-2.41,10.32-6.95,2.93-4.44,1.56-6.28,4.38-8.82,1.98-1.78,3.28-1.44,9.64-3.92,3.55-1.39,5.62-2.46,6.77-2.98,8.45-3.79,17.75-3.54,29.1-3.24,1.42.04,12.58.34,12.62,1.36.03.69-5.11,1.05-12.94,2.97,0,0-7.12,1.74-13.87,4.36-4.27,1.66-14.19,5.5-22.78,13.39-9.95,9.15-15.38,21.23-15.78,20.99-.21-.13,2.05-3.16,1.24-6.59-.08-.36-.63-2.67-2.13-3.06-1.64-.43-3.45,1.71-4.29,2.71-1.72,2.03-1.38,2.96-3.19,5.42-1.25,1.71-2.5,3.42-4.08,3.38-1.35-.04-1.48-1.34-3.8-2.21-1.84-.68-2.22-.03-3.5-.79-1.61-.95-1.47-2.24-2.94-2.75-1.34-.47-2.31.32-2.67-.11-.5-.6.78-2.74,2.85-5,5.01-5.48,10.71-7.33,10.57-7.68-.14-.34-5.87.58-11.95,4.55-6.25,4.08-9.37,9.12-9.97,8.66Z"/>
  <path class="cls-1" d="M125.46,58.51c.37-1.88,1.04-4.5,2.3-7.46,2.58-6.05,6.11-9.87,8.43-12.33.93-.98,4.88-5.11,12.26-9.75,9.51-5.98,17.94-8.54,22.74-9.96,1.89-.56,10.68-3.11,22.65-4.1,3.15-.26,4.88-.28,19.83-.31,11.73-.03,17.59-.04,19.4-.04,34.47.04,34.18.31,37.02-.36,8.47-2.02,14.03-5.16,18.13-2.05,2.33,1.76,3.88,5.3,3.09,8.06-.6,2.11-2.23,2.56-6.15,5.49-2.35,1.75-6.68,4.99-10.15,9.62-3.18,4.25-2.72,5.78-5.74,8.03-2.51,1.88-4.03,1.71-5.87,3.71-2.14,2.31-2.57,5.21-2.82,7.59-1.12,10.78-1.68,16.17.65,23.22,3.33,10.08,9.57,14.83,7.98,21.19-.2.78-.74,2.96-2.44,3.74-1.54.71-3.36-.03-6.45-1.33-3.77-1.6-3.72-2.33-5.34-2.43-3.15-.2-3.7,2.55-6.97,2.6-1.39.02-3.31-1.02-7.16-3.09-2.46-1.33-2.89-1.76-4.41-2.22-1.05-.32-2.33-.56-5.53-.51-6.45.1-6.87,1.18-8.79.35-1.61-.69-1.19-1.39-5.09-5.2-1.8-1.76-2.7-2.64-4-3.48-3.53-2.29-8.23-3.32-8.97-2.15-.37.59.24,1.79.93,2.42.99.91,1.84.38,3.4,1.26,1.29.73,1.02,1.27,2.25,1.98,1.81,1.04,2.96.23,3.68,1.08.99,1.16.26,4.36-1.82,5.36-.84.4-2.16.57-3.05-.07-1.02-.74-.9-2.12-1.36-2.15-.52-.03-.64,1.75-1.92,3.62-.18.26-1.96,2.81-3.25,2.46-.87-.24-.66-1.58-1.97-3.76-.33-.55-1.03-1.34-2.42-2.88-2.64-2.93-3.79-4.03-3.56-4.36.16-.23.8.18,2.7.41.34.04,1.07.13,1.85.12,1.77-.02,3.52-.55,3.5-.81-.03-.35-3.23.64-5.52-1.12-.76-.59-1.4-1.46-2.42-2.88-.87-1.21-.9-1.46-1.5-2.06-.3-.3-2.12-2.12-3.44-1.63-.7.26-.52.89-1.75,2.31-.57.66-1.05,1.2-1.82,1.55-1.27.57-1.82-.09-2.78.35-1.38.63-.87,2.28-2.3,3.65-1.24,1.19-3.48,1.74-4.63.92-1.16-.83-.04-2.24-1.44-4.5-.46-.74-1.62-2.27-3.51-3.28,0,0-.6-.32-.58-.34.02-.04,4.28,3.38,8.48,2.65,1.86-.32,3.49-1.42,3.38-1.94-.11-.52-1.91-.26-5.57-.89-3.46-.6-4.54-1.3-5.21-1.91-1.04-.94-1.92-2.4-1.58-2.81.56-.66,3.64,2.4,8.39,2.51,2.21.05,4.26-.55,4.25-.88-.01-.31-1.78-.22-4.58-.91-2.34-.58-4.09-1.39-5.77-2.16-3.14-1.45-4.97-2.47-4.97-2.47-2-1.12-2.66-1.66-3.49-1.4-1.17.36-.82,1.73-2.33,3.28-1.67,1.72-3,.97-4.29,2.71-.78,1.05-.48,1.58-1.48,2.74-.5.58-1.49,1.73-2.58,1.63-1.12-.1-1.77-1.47-3-4.11-1.13-2.44-1.7-3.66-1.26-4.21,1.19-1.51,7.3,2.33,8.24,1,.45-.63-.36-2.26-1.52-3.04-1.24-.84-2.05-.15-4.49-.77-1.66-.42-1.52-.8-3.49-1.4-2.58-.79-3.1-.22-4.35-.86-2.08-1.06-1.59-3.14-3.35-5.3-2.88-3.54-8.65-3.43-8.76-3.08-.08.25,2.63.55,5.09,2.99.61.6,1.43,1.82,3.09,4.26,1.38,2.03,1.48,2.32,1.48,2.67.04,1.97-2.81,3.26-5.14,4.85-3.53,2.41-5.39,5.28-7.68,8.45-2.35,3.26-3.83,6.22-4.56,7.69-.85,1.71-.64,3.28-1.99,4.46-1.14,1-3.11,1.73-4.77,1.01-1.66-.72-2.21-2.54-2.58-3.77-.97-3.18-.25-6.02-.07-6.77,2.62-10.53,1.18-17.34,4.85-21.49,1.49-1.68,3.02-2.51,3.02-2.51,1.82-.98,2.64-.66,4.26-1.49,2.43-1.25,1.99-2.7,3.75-3.57.9-.44,2.38-.74,10.22,2.55,5.07,2.13,4.75,2.39,5.72,2.39,5.29.05,6.32-7.6,11.95-8.35,4.17-.55,9.28,2.9,11.11,6.8,1.17,2.5.52,4.17,2.04,5.12,2.34,1.47,5.33-1.64,8.6-.02,1.71.85,1.55,2.03,3.13,2.43,1.69.42,2.85-.67,6.07-2.43,4.5-2.46,6.75-3.7,8.9-3.02,1.7.53,3.34,2.2,4.23,3.53.99,1.46,1.18,2.66,2.28,2.97,1.19.33,1.9-.83,2.92-.45,1.13.43.81,2.07,1.85,3.24,1.79,2.02,6.04.89,6.32.81,5.02-1.39,7.04-6.9,7.78-8.92.79-2.16,1.93-5.28.32-7.41-.84-1.12-2.47-2.01-4.05-1.65-2.53.58-3.44,4.06-3.07,4.34.37.28,2.28-2.34,3.24-1.85.12.06.55.33.41,2.55-.14,2.07-.3,4.58-2.19,6.99-.96,1.22-2.05,2.61-3.68,2.73-1.73.13-3.32-1.22-4.73-2.42-1.24-1.05-1.56-1.7-2.9-2.37-1.28-.64-1.53-.32-2.52-.81-2.31-1.17-1.93-3.48-3.7-4.27-.82-.37-2.2.12-4.91,1.1-2.9,1.05-4.35,1.58-6.36,2.62-2.08,1.07-2.75,1.66-3.89,1.45-1.28-.23-1.28-1.11-3.01-1.91-1.39-.64-2.66-.65-4.63-.68-2.72-.03-2.8.46-3.71.14-2.17-.76-1.88-3.64-3.84-6.39-1.82-2.56-5.07-4.26-7.83-4.47-5.09-.38-6.02,4.52-12.82,5.7-4.11.71-8.17-.32-10.13-.81-4.09-1.04-5.95-2.45-9.02-1.91-2.48.43-4.31,1.89-5.48,3.06Z"/>
  <path class="cls-1" d="M131.44,9.64c-.44-.51,3.19-4.29,4.93-4.75.08-.02.46-.12.97-.29.5-.17,1.14-.42,1.85-.79.16-.09.3-.16.4-.22.75-.43,1.24-.81,1.27-.83,6.79-5.07,24.67-1.59,24.67-1.59,7.17,1.35-8.81-2.13,28.33,3.1,25.59,3.61,27.11,4.41,35.24,4.8,17.16.83,29.55-2.63,29.71-1.74.12.68-6.9,2.92-14.66,4.13-11.36,1.77-19.24.55-34.89-1.29-17.73-2.09-26.59-3.14-30.19-3.09-19.3.23-35.48,5.58-35.84,4.21-.09-.35,1.95-1.73,6.02-4.5,2.33-1.58,3.31-2.16,3.19-2.71-.21-.98-3.78-1.23-6.65-.93-8.62.91-13.79,7.12-14.33,6.49Z"/>
  <path class="cls-1" d="M292.58,9.35c1.14-1.73,3.24-.84,13.07-1.72,6.66-.6,7.11-1.13,11.78-1.18,4.74-.05,5.39.49,9.44.3,4.78-.23,6.15-1.09,10.58-1.78,5.3-.83,9.2-.5,16.98.16,5.34.45,5.92.94,14.7,2.15,7.43,1.03,8.87.97,13.81,1.62,10.24,1.34,21.47,2.81,33.44,8.54,7.2,3.45,6.48,4.52,11.91,6.36,10.03,3.39,13.9.21,23.89,2.05,9.68,1.79,16.26,6.66,22.77,11.48,7.4,5.48,13.1,9.69,16.36,17.7,1.09,2.67,4.87,11.96.39,20.44-.86,1.63-3.36,5.75-8.3,7.97-6.25,2.8-13.49,1.24-13.66-.08-.08-.59,1.29-.92,6.15-3.62,3.9-2.16,6.38-3.54,6.23-3.93-.27-.7-8.7,1.39-16.98,5.01-3.82,1.67-7.67,3.35-12.16,6.6-5.03,3.63-12.26,8.85-14.6,17.39-1.15,4.2.25,4.18-.99,11.79-1.25,7.62-2,12.22-5.39,14.3-3.74,2.29-9.23.65-14.79-1-5.32-1.58-7.18-3.3-9.84-2.22-2.47,1.01-2.22,3.05-5.77,6.37-3.56,3.33-7.57,4.79-7.83,4.4-.26-.38,3.51-2.23,5.58-6.25,2.11-4.1,1.38-8.37,1.02-10.45-1.6-9.35-12.19-29.53-31.64-35-6.23-1.75-12.66-1.79-23.52-6.64-3.29-1.47-5.91-2.89-7.63-3.89.84-.87,2.24-2.15,4.23-3.22,6.36-3.43,11.23-.69,14.13-3.48,2.39-2.31,1.6-6.6.72-11.35-1.56-8.44-6.42-18.12-9.72-17.54-2.06.36-2.94,4.62-3.64,8.02-1.14,5.52-.4,10.19.26,12.9-1.79-1.93-4.48-4.95-7.51-8.87-5.09-6.57-9-12.86-10.42-15.19-4.07-6.69-4.09-7.72-6.76-10.7-3.03-3.38-6.46-7.21-11.06-7.17-4.2.04-7.26,3.28-10.31,6.51-3.11,3.3-1.86,3.46-7.5,11.82-3.23,4.79-4.62,6.18-4.49,8.83.14,3.13,2.26,5.14,1.18,6.6-.86,1.17-2.51.28-4.58,1.8-.29.21-2.11,1.6-2.32,3.65-.28,2.74,2.5,4.91,3.69,5.84,1.76,1.37,4.11,2.49,8.16,3.01,2.88.37,5.59.31,13.05-.89,10.34-1.66,10.85-2.46,13.58-1.77,1.87.47,2.79,1.14,9.99,6.76,9.65,7.55,9.2,7.3,10.21,7.98,6.46,4.35,12.5,6.19,16.67,7.43,9.99,2.96,10.97.87,17.34,3.74,5.92,2.67,9.52,6.48,13.71,10.93,4.07,4.32,7.92,8.49,10.1,15.12,1.23,3.74,3.29,10.02.04,13.86-2.77,3.27-7.9,2.98-9.33,2.9-5.58-.32-8.95-3.42-14.5-7.44-5.39-3.91-11.32-7-16.98-10.5-12.12-7.52-18.18-11.28-24.63-13.56-6.93-2.45-12.96-4.59-20.73-3.51-10.39,1.45-18.04,7.83-20.61,10.03-7.83,6.69-8.61,11.95-15.4,13.54-4.95,1.16-10.45-.24-10.99-2.31-.31-1.21,1.25-1.99,4.77-7.1,1.58-2.28,2.36-3.42,2.93-4.84,1.76-4.43-.17-5.96,1.23-8.4,2.22-3.87,7.9-1.44,12.41-6.21.78-.82,3.18-3.35,2.7-6.06-.44-2.53-3.1-3.56-11.68-8.14-5.6-2.99-8.41-4.5-9.25-5.59-3.76-4.92-2.9-13.04.13-18.32,1.39-2.43,4-4.65,9.22-9.1,5.34-4.54,6.24-4.38,8.28-7.14,2.75-3.71,1.95-5.11,5.29-10.15,3.07-4.63,4.21-4.15,5.02-6.71,1.82-5.81-3.58-9.87-1.6-12.87Z"/>
  <path class="cls-1" d="M93.94,55.95c0,.16,1.17.37,3.54.8,1.49.27,2.11.33,3.31.66,1.23.33,1.1.41,1.98.62,2.32.56,3.1.01,3.91.71.7.6.94,1.72.75,2.56-.3,1.35-1.53,1.31-3.05,2.94-1.29,1.38-.85,1.89-2.98,5.35-.63,1.02-.98,1.58-1.58,2.3-.88,1.04-2.81,3.34-4.21,2.95-1.02-.29-1.37-1.88-1.74-3.67-.79-3.79.09-4.86-.33-8.75-.4-3.76-1.38-4.16-.77-6.02.92-2.81,3.85-4.06,4.72-4.43,1.68-.72,2.32-.33,2.45-.25.48.32.36.76.95,1.28.5.44.94.43,2.05.73,0,0,1.07.29,2.22.77,1.02.43,3.04,1.45,2.9,2.07-.11.47-1.42.54-1.81.57-2.23.12-3.59-.73-5.12-1.24-3.6-1.21-7.17-.23-7.19.06Z"/>
  <path class="cls-1" d="M89.19,51.38c.88-.66,2.11-.29,2.19-.26.97.31,1.75,1.19,1.85,2.11.11,1.04-.76,1.22-1.12,2.76-.24,1.03-.09,1.95.14,3.29.26,1.54.62,2.24.32,2.46-.34.25-1.22-.34-1.71-.76-.56-.48-1.42-1.44-1.97-3.77-.43-1.83-1.13-4.76.31-5.83Z"/>
  <g>
    <path class="cls-1" d="M36.88,225.45c-16.13,0-36.88-7.55-36.88-26.59,0-3.6,1.37-15.96,6.18-15.96,3.09,0,5.66,4.46,7.03,6.86,5.32,9.44,13.55,22.99,26.08,22.99,8.75,0,15.27-8.23,15.27-16.64,0-11.49-19.73-19.39-28.48-23.5-12.52-5.83-24.02-13.9-24.02-29.16,0-21.27,16.3-33.28,36.54-33.28,7.72,0,24.02,3.09,26.25,11.84.86,3.43.86,7.21.86,10.64,0,3.09-.17,11.84-4.63,11.84-6.69,0-16.3-20.93-26.25-20.93-1.2,0-2.4.34-3.6.51-5.15,1.37-11.67,3.6-11.67,10.12,0,1.2,0,2.23.34,3.43,2.75,10.81,8.06,13.9,18.01,18.01,4.46,1.89,9.09,3.26,13.55,5.15,12.52,5.32,19.04,14.41,19.04,28.31,0,18.7-14.07,36.37-33.62,36.37Z"/>
    <path class="cls-1" d="M128.66,177.59c-8.75,0-6.18-12.35-16.13-12.35-12.7,0-18.01,13.55-18.01,24.19,0,9.61,7.03,22.65,17.84,22.65,6.35,0,13.9-5.15,16.81-5.15,2.57,0,4.29,2.92,4.29,5.15,0,7.72-18.36,12.35-24.36,12.35-8.23,0-15.95-4.29-21.62-9.95-7.55-7.21-10.64-18.36-10.64-28.48,0-19.73,15.27-33.8,34.83-33.8,8.75,0,25.39,4.29,25.39,15.44,0,4.63-3.43,9.95-8.41,9.95Z"/>
    <path class="cls-1" d="M195.91,225.11c-6.69,0-12.18-4.8-18.87-4.8-6,0-10.64,4.29-15.1,4.29-.86,0-1.54-.17-2.4-.51-10.46-3.6-13.21-2.92-14.58-15.1-.17-.51-.17-1.03-.17-1.54,0-7.38,7.55-14.24,13.21-18.01,8.58-6,20.59.34,20.59-14.58,0-4.46-2.75-10.64-8.06-10.64-6,0-6.35,13.38-16.64,13.38-4.29,0-9.44-2.74-9.44-7.55,0-2.4,1.2-4.46,2.57-6.18,6.18-7.38,15.95-11.32,25.39-11.32,2.06,0,4.12.17,6.18.51,12.01,1.72,17.33,3.43,17.33,16.98,0,6-.34,12.01-1.54,18.01-.69,3.43-1.72,7.03-1.72,10.64,0,4.12,2.92,8.75,6.35,10.98,2.4,1.54,7.38,2.4,7.38,6.18,0,5.66-4.98,9.26-10.46,9.26ZM173.26,192c-5.15,0-8.92,8.23-8.92,12.52,0,4.98,3.26,6,7.55,6,5.15,0,6.18-7.21,6.18-11.15,0-3.09-1.03-7.38-4.8-7.38Z"/>
    <path class="cls-1" d="M266.41,164.03c-6.35,9.61-13.55,18.87-17.33,29.85-1.2,3.09-2.06,6.35-2.75,9.44-1.37,6-2.4,15.95-8.41,19.04-1.72,1.03-3.6,1.54-5.49,1.54-6.18,0-8.92-5.49-10.46-10.64-1.2-4.46-2.4-8.75-3.77-13.04s-2.92-8.41-3.95-12.7c-1.37-5.83-2.74-12.01-5.66-17.33-1.54-2.57-5.49-6.69-5.49-9.78,0-5.49,13.21-7.21,17.33-7.21,3.26,0,12.01.86,12.01,5.32,0,2.06-4.12,6.52-4.12,11.84,0,5.83,2.75,10.98,4.29,16.3.51,2.06,2.06,10.46,4.46,10.46,3.09,0,11.84-23.5,11.84-27.28,0-5.15-6.86-7.03-6.86-11.49,0-4.12,4.12-4.63,7.38-4.63,2.57,0,5.15.34,7.89.34,2.92.17,11.49,0,11.49,4.29,0,2.23-1.37,3.95-2.4,5.66Z"/>
    <path class="cls-1" d="M297.46,183.59c-2.57,0-4.98-.69-7.38-.69-2.75,0-3.77,2.06-3.77,4.46,0,3.77,1.37,7.55,2.75,10.98,2.4,6.35,6.18,13.55,14.07,13.55,6.18,0,11.49-4.63,16.47-4.63,3.09,0,4.29,3.26,4.29,5.83,0,9.44-15.61,12.7-22.99,12.7-3.95,0-8.06-.51-11.84-1.89-12.7-4.97-18.87-21.62-18.87-34.31,0-9.78,3.43-19.21,10.12-26.59,5.32-6,12.52-10.81,20.93-10.81,9.26,0,17.67,5.66,23.67,12.35,2.23,2.57,5.66,6.86,5.66,10.46,0,8.41-26.59,8.58-33.11,8.58ZM298.66,163c-4.12,0-9.26,4.29-9.26,8.58,0,3.6,6,3.77,8.58,3.77,2.23,0,13.9,0,13.9-3.26,0-3.77-9.95-9.09-13.21-9.09Z"/>
    <path class="cls-1" d="M397.13,224.42c-1.37.69-1.54,1.03-3.26,1.03-3.09,0-4.8-1.03-7.38-2.57-2.23-1.37-8.41-2.06-8.41-5.32,0-5.66,8.41-6.52,9.61-11.67.51-2.57.51-5.49.51-8.06v-.86c0-6-1.2-11.67-1.72-17.67-.51-7.03-2.23-13.38-10.81-13.38-4.46,0-7.72,3.43-11.32,5.49-3.6,1.89-3.77,10.64-3.77,15.61v1.89c0,3.43-.17,6.86-.17,10.29,0,3.77.17,6.52,2.23,9.78,2.06,3.26,4.29,6.52,4.29,10.29,0,3.43-1.89,4.12-4.8,4.63-4.29.69-8.92,1.54-13.38,1.54s-11.84-2.57-11.84-7.72c0-3.26,2.57-5.15,4.63-7.03,4.46-4.29,3.43-16.13,3.77-21.96,0-2.92.17-8.75.17-8.92,0-3.77,0-11.84-3.43-13.72-2.75-1.37-6-2.06-6-6,0-5.32,9.09-8.23,13.55-8.23,5.66,0,8.92,6.35,13.72,6.35.69,0,1.37-.34,2.06-.51,5.15-1.89,10.12-3.26,15.61-3.26,4.29,0,8.58.86,11.84,3.77,8.58,7.38,9.26,14.24,9.26,25.05,0,6-1.2,12.01-1.2,18.18,0,11.84,8.06,10.81,8.06,16.47,0,4.46-8.92,4.8-11.84,6.52Z"/>
    <path class="cls-1" d="M443.11,259.08c-10.81,0-32.94-6.35-32.94-19.9,0-10.46,11.15-13.38,11.15-20.42,0-3.09-3.09-5.15-3.09-8.23,0-3.95,4.8-4.8,4.8-10.98,0-10.12-9.09-11.84-9.09-24.02,0-8.92,8.75-22.99,18.18-24.53,3.77-.51,7.72-.69,11.49-.69,10.46,0,16.3,7.03,23.5,7.03,2.75,0,5.49-1.89,6.86-1.89,2.57,0,3.6,3.6,3.6,5.66,0,9.09-12.52,10.46-12.52,23.16,0,9.61-14.75,15.61-22.82,15.61-3.09,0-5.83-1.37-8.75-1.37-1.89,0-2.74,7.03-2.74,8.58,0,3.6,1.71,5.49,5.32,5.49,4.29,0,8.41-1.54,12.69-1.54,7.21,0,14.93,2.4,20.42,7.21,5.15,4.29,9.78,12.18,9.78,19.04,0,14.75-24.02,21.79-35.85,21.79ZM460.09,228.88c-3.43-3.6-9.95-6.69-14.93-6.69-6.52,0-17.67,6-17.67,13.38,0,5.32,6,10.64,10.98,11.67,2.06.51,4.29.69,6.35.69,6.69,0,18.01-4.29,18.01-12.18,0-2.57-1.03-4.97-2.74-6.86ZM442.59,161.46c-7.03,0-11.15,9.95-11.15,15.96s2.57,12.18,9.61,12.18c8.75,0,13.38-7.38,13.38-15.44,0-6.18-5.49-12.7-11.84-12.7Z"/>
    <path class="cls-1" d="M508.98,183.59c-2.57,0-4.98-.69-7.38-.69-2.75,0-3.77,2.06-3.77,4.46,0,3.77,1.37,7.55,2.75,10.98,2.4,6.35,6.18,13.55,14.07,13.55,6.18,0,11.49-4.63,16.47-4.63,3.09,0,4.29,3.26,4.29,5.83,0,9.44-15.61,12.7-22.99,12.7-3.95,0-8.06-.51-11.84-1.89-12.7-4.97-18.87-21.62-18.87-34.31,0-9.78,3.43-19.21,10.12-26.59,5.32-6,12.52-10.81,20.93-10.81,9.26,0,17.67,5.66,23.67,12.35,2.23,2.57,5.66,6.86,5.66,10.46,0,8.41-26.59,8.58-33.11,8.58ZM510.18,163c-4.12,0-9.26,4.29-9.26,8.58,0,3.6,6,3.77,8.58,3.77,2.23,0,13.9,0,13.9-3.26,0-3.77-9.95-9.09-13.21-9.09Z"/>
    <path class="cls-1" d="M589.26,173.3c-2.92,0-5.83-1.54-8.75-1.54-6.86,0-7.21,10.12-7.21,15.78v1.89c0,4.63.17,18.87,3.43,22.13,2.06,2.06,3.95,3.43,3.95,6.52,0,3.26-3.26,5.83-6.18,5.83s-5.32-1.54-8.23-1.54c-3.26,0-5.66,3.09-9.09,3.09s-9.44-5.32-9.44-8.75c0-4.12,6-5.83,8.41-8.41,2.4-2.4,2.4-6.69,2.4-9.95,0-7.38-1.71-28.13-7.03-33.11-1.37-1.37-3.09-2.4-3.09-4.46,0-5.15,13.21-10.29,17.67-10.29,7.89,0,6.18,8.24,8.58,8.24,3.95,0,9.44-5.49,14.07-5.49,5.15,0,9.26,4.29,9.26,9.26s-2.92,10.81-8.75,10.81Z"/>
  </g>
  <g>
    <path class="cls-1" d="M5.45,242.41v-4.76h4.76v4.76h-4.76ZM5.45,271.56v-24.21h4.76v24.21h-4.76Z"/>
    <path class="cls-1" d="M15.57,251.64v-4.29h10.91v4.29h-10.91ZM23.74,271.67c-1.99,0-3.43-.55-4.33-1.66-.89-1.1-1.34-2.69-1.34-4.76v-24.95h4.76v25c0,.58.12,1.03.35,1.35.23.33.57.49,1.03.49h2.29v4.52h-2.75Z"/>
    <path class="cls-1" d="M31.03,250.38v-12.73h4.99v7.56l-4.99,5.18Z"/>
    <path class="cls-1" d="M48.43,271.91c-2.15,0-4.09-.31-5.84-.94s-3.32-1.57-4.7-2.83l2.82-3.47c1.32,1,2.62,1.74,3.91,2.24,1.28.5,2.55.75,3.81.75,1.88,0,3.29-.29,4.23-.87.94-.58,1.41-1.46,1.41-2.62,0-.9-.31-1.54-.94-1.91-.63-.37-1.45-.62-2.47-.73-1.02-.12-2.11-.21-3.28-.29-.98-.08-1.95-.2-2.92-.36-.96-.16-1.84-.46-2.64-.89s-1.43-1.06-1.9-1.9c-.47-.84-.71-1.97-.71-3.38,0-2.56.78-4.48,2.36-5.76,1.57-1.27,3.91-1.91,7.02-1.91,1.9,0,3.66.26,5.29.77,1.63.51,3.16,1.3,4.59,2.36l-2.87,3.47c-1.21-.78-2.41-1.36-3.58-1.75s-2.32-.58-3.44-.58c-1.62,0-2.83.28-3.64.83-.81.55-1.21,1.38-1.21,2.48,0,.73.28,1.26.84,1.57.56.32,1.3.52,2.22.62.92.09,1.9.18,2.96.26,1.01.06,2.03.17,3.07.34,1.03.16,1.99.48,2.86.94.87.47,1.57,1.16,2.1,2.08.53.92.79,2.17.79,3.75,0,2.6-.84,4.54-2.53,5.83-1.69,1.29-4.23,1.94-7.61,1.94Z"/>
    <path class="cls-1" d="M77.46,271.56v-24.21h4.76v24.21h-4.76ZM90.78,253.09c-.42-.51-.95-.9-1.59-1.17-.64-.26-1.38-.4-2.22-.4-1.51,0-2.68.42-3.51,1.25-.83.83-1.25,1.99-1.25,3.46l-.49-4.66c.73-1.43,1.69-2.55,2.88-3.36,1.19-.81,2.5-1.21,3.93-1.21,1.1,0,2.1.16,3,.48.89.32,1.67.79,2.34,1.41l-3.1,4.2Z"/>
    <path class="cls-1" d="M106.66,271.91c-3.17,0-5.63-.92-7.37-2.76-1.74-1.84-2.61-4.43-2.61-7.78v-3.94c0-3.31.87-5.88,2.61-7.7,1.74-1.82,4.2-2.73,7.37-2.73s5.63.91,7.37,2.73c1.74,1.82,2.61,4.38,2.61,7.7v4.01c0,3.33-.87,5.9-2.61,7.73-1.74,1.83-4.2,2.74-7.37,2.74ZM106.66,267.38c1.66,0,2.95-.52,3.86-1.56.91-1.04,1.36-2.5,1.36-4.38v-4.01c0-1.88-.45-3.33-1.36-4.36-.91-1.03-2.2-1.54-3.86-1.54s-2.93.51-3.85,1.54c-.92,1.03-1.38,2.48-1.38,4.36v4.01c0,1.88.46,3.34,1.38,4.38.92,1.04,2.2,1.56,3.85,1.56Z"/>
    <path class="cls-1" d="M127.58,247.35v14.71c0,1.7.43,3,1.29,3.93s2.08,1.39,3.65,1.39,2.78-.42,3.63-1.25c.85-.83,1.27-2,1.27-3.51l.33,5.06c-.44,1.09-1.2,2.06-2.29,2.93-1.09.86-2.51,1.29-4.27,1.29-2.67,0-4.74-.86-6.19-2.58-1.45-1.72-2.18-4.14-2.18-7.26v-14.71h4.76ZM137.42,271.56v-24.21h4.73v24.21h-4.73Z"/>
    <path class="cls-1" d="M157.05,271.98c-2.67,0-4.74-.86-6.19-2.58s-2.18-4.14-2.18-7.26v-5.34c0-3.14.71-5.57,2.13-7.29,1.42-1.72,3.42-2.58,6-2.58,1.43,0,2.74.37,3.93,1.12,1.19.75,2.15,1.79,2.88,3.15l-.49,4.94c0-1.03-.19-1.9-.56-2.63-.37-.73-.91-1.29-1.62-1.67s-1.57-.57-2.58-.57c-1.57,0-2.79.49-3.65,1.47-.86.98-1.29,2.35-1.29,4.13v5.27c0,1.76.43,3.11,1.29,4.07s2.08,1.43,3.65,1.43c1.01,0,1.87-.2,2.58-.59s1.25-.97,1.62-1.71c.37-.75.56-1.64.56-2.68l.33,5.11c-.44,1.09-1.19,2.06-2.25,2.93-1.07.86-2.45,1.29-4.16,1.29ZM157.5,281.4c-1.82,0-3.45-.34-4.89-1.01-1.44-.68-2.55-1.63-3.35-2.86l3.22-2.92c.62.85,1.36,1.52,2.23,1.98.86.47,1.77.7,2.72.7,1.82,0,3.23-.5,4.22-1.5.99-1,1.49-2.42,1.49-4.26v-24.18h4.76v23.48c0,3.36-.91,5.96-2.72,7.8-1.81,1.84-4.37,2.76-7.68,2.76Z"/>
    <path class="cls-1" d="M175.13,271.56v-33.91h4.76v33.91h-4.76ZM189.82,271.56v-14.67c0-1.71-.44-3.03-1.32-3.96-.88-.93-2.13-1.4-3.74-1.4s-2.76.4-3.6,1.21c-.85.81-1.27,1.95-1.27,3.43l-.49-4.66c.75-1.43,1.72-2.54,2.93-3.32,1.2-.79,2.54-1.18,4-1.18,2.63,0,4.66.86,6.1,2.58s2.16,4.15,2.16,7.29v14.69h-4.76Z"/>
    <path class="cls-1" d="M223.91,271.91c-3.17,0-5.63-.92-7.37-2.76-1.74-1.84-2.61-4.43-2.61-7.78v-3.94c0-3.31.87-5.88,2.61-7.7,1.74-1.82,4.2-2.73,7.37-2.73s5.63.91,7.37,2.73c1.74,1.82,2.61,4.38,2.61,7.7v4.01c0,3.33-.87,5.9-2.61,7.73-1.74,1.83-4.2,2.74-7.37,2.74ZM223.91,267.38c1.66,0,2.95-.52,3.86-1.56.91-1.04,1.36-2.5,1.36-4.38v-4.01c0-1.88-.45-3.33-1.36-4.36-.91-1.03-2.2-1.54-3.86-1.54s-2.93.51-3.85,1.54c-.92,1.03-1.38,2.48-1.38,4.36v4.01c0,1.88.46,3.34,1.38,4.38.92,1.04,2.2,1.56,3.85,1.56Z"/>
    <path class="cls-1" d="M244.83,247.35v14.71c0,1.7.43,3,1.29,3.93s2.08,1.39,3.65,1.39,2.78-.42,3.63-1.25c.85-.83,1.27-2,1.27-3.51l.33,5.06c-.44,1.09-1.2,2.06-2.29,2.93-1.09.86-2.51,1.29-4.27,1.29-2.67,0-4.74-.86-6.19-2.58-1.45-1.72-2.18-4.14-2.18-7.26v-14.71h4.76ZM254.67,271.56v-24.21h4.73v24.21h-4.73Z"/>
    <path class="cls-1" d="M264.77,251.64v-4.29h10.91v4.29h-10.91ZM272.93,271.67c-1.99,0-3.43-.55-4.33-1.66-.89-1.1-1.34-2.69-1.34-4.76v-24.95h4.76v25c0,.58.12,1.03.35,1.35.23.33.57.49,1.03.49h2.29v4.52h-2.75Z"/>
    <path class="cls-1" d="M293.17,251.64v-4.29h10.91v4.29h-10.91ZM301.33,271.67c-1.99,0-3.43-.55-4.33-1.66-.89-1.1-1.34-2.69-1.34-4.76v-24.95h4.76v25c0,.58.12,1.03.35,1.35.23.33.58.49,1.03.49h2.29v4.52h-2.75Z"/>
    <path class="cls-1" d="M310.61,271.56v-33.91h4.76v33.91h-4.76ZM325.3,271.56v-14.67c0-1.71-.44-3.03-1.32-3.96-.88-.93-2.13-1.4-3.74-1.4s-2.76.4-3.6,1.21c-.85.81-1.27,1.95-1.27,3.43l-.49-4.66c.75-1.43,1.72-2.54,2.93-3.32s2.54-1.18,4-1.18c2.63,0,4.66.86,6.1,2.58,1.44,1.72,2.16,4.15,2.16,7.29v14.69h-4.76Z"/>
    <path class="cls-1" d="M347.2,271.91c-3.37,0-5.99-.94-7.83-2.82-1.85-1.88-2.78-4.55-2.78-8.02v-2.73c0-3.61.89-6.4,2.67-8.37s4.29-2.96,7.52-2.96c3.05,0,5.41,1.12,7.08,3.36,1.67,2.24,2.51,5.38,2.51,9.42v1.59h-16.32v-3.82h11.8c-.14-1.96-.65-3.49-1.53-4.59-.88-1.1-2.06-1.66-3.53-1.66-1.79,0-3.18.59-4.17,1.77-1,1.18-1.49,2.85-1.49,5.01v3.08c0,2,.53,3.54,1.6,4.62,1.07,1.07,2.56,1.61,4.49,1.61.96,0,1.92-.19,2.87-.58s1.8-.93,2.54-1.63l3.12,3.12c-1.2,1.15-2.54,2.04-4.03,2.67-1.49.63-2.99.94-4.5.94Z"/>
    <path class="cls-1" d="M362.9,271.56v-24.21h4.76v24.21h-4.76ZM376.21,253.09c-.42-.51-.95-.9-1.59-1.17s-1.38-.4-2.21-.4c-1.51,0-2.68.42-3.51,1.25s-1.25,1.99-1.25,3.46l-.49-4.66c.73-1.43,1.69-2.55,2.88-3.36s2.5-1.21,3.93-1.21c1.1,0,2.1.16,3,.48.89.32,1.67.79,2.34,1.41l-3.1,4.2Z"/>
    <path class="cls-1" d="M392.72,271.91c-3.37,0-5.99-.94-7.84-2.82s-2.77-4.55-2.77-8.02v-2.73c0-3.61.89-6.4,2.67-8.37,1.78-1.97,4.29-2.96,7.52-2.96,3.05,0,5.41,1.12,7.08,3.36,1.67,2.24,2.51,5.38,2.51,9.42v1.59h-16.32v-3.82h11.8c-.14-1.96-.65-3.49-1.53-4.59-.88-1.1-2.06-1.66-3.53-1.66-1.79,0-3.18.59-4.17,1.77s-1.49,2.85-1.49,5.01v3.08c0,2,.53,3.54,1.6,4.62,1.06,1.07,2.56,1.61,4.49,1.61.96,0,1.92-.19,2.87-.58.95-.39,1.79-.93,2.54-1.63l3.12,3.12c-1.2,1.15-2.54,2.04-4.03,2.67-1.49.63-2.99.94-4.5.94Z"/>
  </g>
</svg>