<?xml version="1.0" encoding="UTF-8"?>
<svg id="Layer_2" data-name="Layer 2" xmlns="http://www.w3.org/2000/svg" viewBox="0 0 433.22 557.36">
  <defs>
    <style>
      .cls-1, .cls-2, .cls-3, .cls-4 {
        fill: currentColor;
      }

      .cls-1, .cls-3, .cls-4 {
        font-size: 173.86px;
      }

      .cls-1, .cls-5 {
        font-family: MyriadPro-Regular, 'Myriad Pro';
      }

      .cls-6, .cls-7, .cls-4 {
        font-family: Broadsheet, Broadsheet;
      }

      .cls-7 {
        letter-spacing: -.01em;
      }

      .cls-4 {
        letter-spacing: .04em;
      }
    </style>
  </defs>
  <g id="Layer_1-2" data-name="Layer 1">
    <path class="cls-2" d="M410.27,59.89c.51-.38-1.33-4.15-2.84-6.62,0,0-.09-.15-.17-.27-.7-1.11-2.76-3.97-8.59-8.77-2.83-2.33-5.32-4.04-9.32-6.77-2.21-1.51-3.12-2.07-4.54-3.03-6.92-4.62-13.83-10.25-13.78-10.31.06-.08,15.71,8.04,15.12,17.01-.18,2.71-1.55,4.11-1.55,4.11-.07.06-.58.56-1.1.79-2.44,1.07-7.42-2.44-10.46-7.05-2.97-4.5-1.58-6.37-4.44-8.94-2.01-1.81-3.33-1.46-9.76-3.98-3.6-1.41-5.7-2.5-6.86-3.02-8.56-3.84-17.99-3.58-29.49-3.29-1.44.04-12.75.35-12.79,1.38-.03.7,5.17,1.07,13.12,3.01,0,0,7.22,1.77,14.06,4.42,4.33,1.68,14.38,5.57,23.09,13.57,10.08,9.27,15.59,21.51,15.99,21.27.21-.13-2.08-3.2-1.26-6.68.09-.36.64-2.71,2.16-3.1,1.67-.43,3.49,1.73,4.35,2.75,1.74,2.06,1.4,3,3.23,5.49,1.27,1.74,2.54,3.47,4.13,3.42,1.37-.04,1.5-1.36,3.85-2.24,1.86-.69,2.25-.03,3.55-.8,1.63-.96,1.49-2.27,2.98-2.79,1.36-.47,2.34.33,2.71-.11.5-.61-.79-2.78-2.89-5.07-5.08-5.56-10.85-7.43-10.71-7.78.14-.34,5.95.58,12.11,4.61,6.34,4.14,9.49,9.24,10.11,8.78Z"/>
    <path class="cls-2" d="M373.32,68.86c-.38-1.91-1.05-4.56-2.33-7.56-2.62-6.13-6.19-10-8.54-12.5-.94-1-4.95-5.18-12.43-9.88-9.64-6.06-18.18-8.65-23.05-10.1-1.91-.57-10.82-3.15-22.95-4.15-3.19-.26-4.94-.28-20.1-.32-11.88-.03-17.83-.04-19.66-.04-34.94.04-34.64.32-37.52-.37-8.59-2.04-14.21-5.23-18.38-2.07-2.36,1.79-3.93,5.37-3.13,8.17.61,2.14,2.26,2.59,6.23,5.56,2.38,1.78,6.77,5.06,10.28,9.74,3.23,4.31,2.76,5.85,5.82,8.14,2.55,1.9,4.08,1.73,5.95,3.76,2.16,2.34,2.6,5.28,2.85,7.69,1.13,10.93,1.7,16.39-.66,23.53-3.38,10.21-9.7,15.03-8.09,21.48.2.79.75,3,2.47,3.8,1.57.72,3.41-.03,6.54-1.35,3.83-1.62,3.77-2.36,5.41-2.47,3.19-.2,3.75,2.59,7.06,2.64,1.41.02,3.36-1.03,7.25-3.13,2.49-1.34,2.93-1.78,4.47-2.25,1.06-.32,2.36-.57,5.6-.52,6.54.1,6.96,1.2,8.91.35,1.63-.7,1.2-1.41,5.15-5.27,1.83-1.78,2.74-2.67,4.06-3.53,3.58-2.32,8.34-3.37,9.09-2.17.38.6-.24,1.81-.94,2.45-1,.92-1.86.38-3.44,1.27-1.3.74-1.03,1.28-2.28,2.01-1.83,1.06-3,.24-3.73,1.09-1,1.17-.27,4.42,1.85,5.43.85.41,2.19.58,3.09-.08,1.03-.75.91-2.15,1.37-2.18.53-.03.65,1.77,1.95,3.67.18.26,1.99,2.85,3.3,2.49.89-.24.67-1.6,2-3.81.34-.56,1.05-1.35,2.45-2.92,2.67-2.97,3.84-4.09,3.6-4.42-.16-.23-.81.18-2.73.42-.35.04-1.08.13-1.87.12-1.8-.02-3.57-.55-3.54-.82.03-.36,3.27.65,5.59-1.14.77-.6,1.41-1.48,2.45-2.92.88-1.22.91-1.48,1.52-2.08.31-.31,2.15-2.15,3.48-1.66.7.26.53.9,1.77,2.34.58.66,1.06,1.22,1.85,1.57,1.29.58,1.84-.09,2.82.36,1.4.64.88,2.31,2.33,3.7,1.26,1.21,3.53,1.76,4.69.93,1.17-.84.04-2.27,1.46-4.56.46-.75,1.65-2.3,3.55-3.33,0,0,.6-.32.59-.34-.02-.04-4.34,3.42-8.6,2.69-1.88-.33-3.54-1.43-3.43-1.96.11-.53,1.94-.26,5.64-.9,3.5-.61,4.6-1.32,5.28-1.94,1.05-.96,1.94-2.44,1.6-2.85-.57-.67-3.69,2.43-8.51,2.54-2.24.05-4.32-.56-4.31-.89.01-.31,1.81-.22,4.64-.92,2.37-.59,4.14-1.41,5.85-2.19,3.19-1.47,5.03-2.5,5.03-2.5,2.03-1.14,2.7-1.68,3.54-1.42,1.18.37.83,1.75,2.37,3.32,1.7,1.74,3.04.99,4.35,2.75.79,1.07.49,1.6,1.5,2.77.5.59,1.51,1.75,2.61,1.65,1.13-.1,1.8-1.49,3.04-4.17,1.15-2.47,1.72-3.71,1.28-4.27-1.21-1.53-7.4,2.36-8.35,1.01-.45-.63.37-2.29,1.54-3.08,1.26-.85,2.08-.15,4.55-.78,1.68-.43,1.54-.81,3.54-1.42,2.61-.8,3.14-.22,4.41-.87,2.11-1.08,1.61-3.18,3.39-5.37,2.92-3.59,8.76-3.48,8.87-3.12.08.25-2.66.55-5.16,3.03-.61.61-1.45,1.84-3.13,4.31-1.4,2.06-1.5,2.35-1.5,2.7-.04,2,2.85,3.31,5.21,4.92,3.58,2.44,5.46,5.35,7.78,8.57,2.38,3.31,3.88,6.3,4.62,7.79.86,1.73.65,3.32,2.01,4.52,1.16,1.01,3.15,1.75,4.83,1.02,1.68-.73,2.24-2.58,2.62-3.82.98-3.23.26-6.1.07-6.86-2.65-10.67-1.2-17.57-4.91-21.78-1.51-1.7-3.06-2.54-3.06-2.54-1.85-.99-2.68-.67-4.32-1.51-2.47-1.27-2.01-2.74-3.8-3.62-.91-.45-2.41-.75-10.36,2.59-5.14,2.16-4.82,2.42-5.8,2.43-5.36.05-6.4-7.71-12.11-8.46-4.22-.56-9.4,2.94-11.26,6.89-1.19,2.54-.53,4.23-2.06,5.19-2.38,1.49-5.4-1.66-8.71-.02-1.74.86-1.57,2.06-3.18,2.46-1.71.43-2.89-.68-6.15-2.47-4.56-2.5-6.85-3.75-9.02-3.06-1.72.54-3.38,2.23-4.29,3.58-1,1.48-1.2,2.7-2.31,3.01-1.21.33-1.93-.85-2.96-.45-1.14.44-.82,2.1-1.87,3.28-1.81,2.04-6.12.9-6.41.82-5.09-1.41-7.13-6.99-7.89-9.04-.8-2.19-1.96-5.35-.33-7.51.85-1.13,2.5-2.04,4.1-1.67,2.57.59,3.49,4.11,3.11,4.4-.37.28-2.31-2.37-3.28-1.87-.12.06-.56.34-.41,2.58.14,2.1.31,4.65,2.22,7.09.97,1.24,2.08,2.64,3.73,2.76,1.75.13,3.37-1.24,4.8-2.45,1.25-1.06,1.59-1.73,2.94-2.4,1.3-.65,1.55-.32,2.55-.82,2.34-1.19,1.95-3.52,3.75-4.33.83-.37,2.23.12,4.98,1.12,2.94,1.07,4.41,1.6,6.44,2.65,2.1,1.09,2.79,1.68,3.94,1.47,1.3-.23,1.29-1.12,3.05-1.93,1.41-.65,2.7-.66,4.7-.69,2.76-.03,2.84.47,3.76.15,2.2-.77,1.91-3.69,3.89-6.47,1.85-2.59,5.14-4.32,7.93-4.53,5.16-.38,6.1,4.58,12.99,5.77,4.17.72,8.28-.32,10.26-.82,4.14-1.05,6.03-2.48,9.14-1.94,2.51.44,4.37,1.92,5.55,3.1Z"/>
    <path class="cls-2" d="M367.26,19.33c.45-.52-3.23-4.35-5-4.81-.08-.02-.47-.12-.98-.29-.51-.17-1.16-.43-1.87-.8-.17-.09-.3-.16-.4-.22-.76-.43-1.25-.82-1.29-.85-6.88-5.14-25-1.61-25-1.61-7.26,1.37,8.93-2.16-28.71,3.14-25.94,3.66-27.48,4.47-35.71,4.87-17.39.85-29.95-2.67-30.11-1.76-.12.69,7,2.96,14.86,4.18,11.51,1.8,19.49.56,35.36-1.31,17.97-2.12,26.95-3.18,30.6-3.13,19.56.23,35.96,5.66,36.33,4.27.09-.35-1.97-1.76-6.1-4.57-2.36-1.6-3.35-2.19-3.23-2.75.22-.99,3.83-1.25,6.74-.94,8.73.92,13.97,7.22,14.53,6.58Z"/>
    <path class="cls-2" d="M231.29,15.07c.06-.71-5.9-.88-14.66-4.3-5.34-2.08-5.57-2.98-11.52-5.35-2.48-.99-7.15-2.82-13.43-4.07-8.13-1.62-14.9-1.45-18.86-1.16-6.42.48-11.33,1.74-13.66,2.41-5.45,1.55-7.15,2.79-13.65,5.45-11.4,4.66-19.24,6.2-19.12,6.68.13.54,9.82-3.21,23.67-2.97,4.71.08,6.64.57,18.14.98,5.17.18,5.45.11,9.2.29,7.06.34,10.02.8,17.57,1.45,3.48.3,9.94.84,17.5,1.12,1.96.07,18.71.67,18.82-.53Z"/>
    <path class="cls-2" d="M203.95,19.03c-1.15-1.75-3.28-.85-13.24-1.75-6.75-.6-7.2-1.15-11.93-1.2-4.81-.05-5.46.5-9.57.3-4.85-.23-6.23-1.1-10.72-1.81-5.38-.85-9.32-.51-17.21.16-5.41.46-6,.95-14.89,2.18-7.53,1.04-8.99.98-14,1.64-10.38,1.36-21.76,2.84-33.89,8.66-7.3,3.5-6.57,4.58-12.07,6.44-10.17,3.43-14.09.21-24.21,2.08-9.81,1.81-16.48,6.75-23.07,11.63-7.5,5.55-13.27,9.82-16.58,17.94-1.1,2.71-4.93,12.12-.4,20.72.87,1.65,3.4,5.83,8.42,8.08,6.34,2.84,13.67,1.25,13.84-.08.08-.6-1.3-.93-6.24-3.66-3.96-2.19-6.46-3.58-6.31-3.99.27-.71,8.81,1.41,17.21,5.08,3.88,1.69,7.77,3.4,12.33,6.69,5.1,3.68,12.42,8.97,14.8,17.63,1.17,4.25-.26,4.24,1,11.95,1.26,7.73,2.02,12.38,5.47,14.49,3.79,2.32,9.35.66,14.99-1.01,5.39-1.6,7.28-3.35,9.97-2.25,2.51,1.02,2.25,3.09,5.85,6.46,3.61,3.37,7.67,4.85,7.94,4.46.26-.39-3.56-2.26-5.65-6.33-2.14-4.15-1.4-8.48-1.04-10.59,1.62-9.47,12.36-29.93,32.07-35.47,6.31-1.77,12.83-1.82,23.84-6.73,3.33-1.49,5.98-2.93,7.73-3.94-.86-.88-2.27-2.18-4.29-3.26-6.45-3.47-11.38-.7-14.32-3.53-2.42-2.34-1.62-6.69-.73-11.5,1.58-8.56,6.5-18.37,9.85-17.78,2.09.37,2.98,4.68,3.69,8.13,1.16,5.6.4,10.33-.26,13.08,1.81-1.96,4.54-5.02,7.61-8.99,5.16-6.66,9.12-13.04,10.56-15.4,4.13-6.78,4.15-7.83,6.85-10.84,3.07-3.43,6.55-7.3,11.21-7.26,4.26.04,7.35,3.32,10.45,6.6,3.15,3.34,1.89,3.5,7.6,11.98,3.28,4.86,4.68,6.27,4.55,8.95-.15,3.17-2.29,5.21-1.19,6.69.87,1.18,2.54.28,4.64,1.83.29.22,2.14,1.62,2.36,3.7.29,2.78-2.53,4.98-3.74,5.91-1.78,1.39-4.17,2.52-8.27,3.05-2.92.38-5.67.31-13.22-.91-10.48-1.68-11-2.49-13.76-1.8-1.89.47-2.83,1.15-10.12,6.85-9.78,7.65-9.33,7.39-10.35,8.08-6.55,4.41-12.67,6.28-16.9,7.53-10.13,3-11.12.89-17.57,3.8-6,2.71-9.65,6.57-13.9,11.08-4.12,4.37-8.03,8.61-10.24,15.33-1.24,3.79-3.33,10.16-.04,14.04,2.81,3.32,8.01,3.02,9.45,2.94,5.65-.32,9.07-3.46,14.7-7.54,5.46-3.96,11.48-7.09,17.21-10.64,12.29-7.62,18.43-11.43,24.96-13.75,7.02-2.49,13.13-4.65,21.01-3.56,10.53,1.47,18.29,7.94,20.89,10.16,7.94,6.78,8.73,12.11,15.61,13.72,5.02,1.18,10.59-.24,11.14-2.34.32-1.23-1.26-2.02-4.83-7.19-1.6-2.31-2.4-3.47-2.97-4.91-1.78-4.49.17-6.04-1.24-8.51-2.25-3.92-8.01-1.46-12.58-6.29-.79-.83-3.22-3.4-2.74-6.14.45-2.56,3.14-3.61,11.83-8.25,5.67-3.03,8.53-4.56,9.37-5.66,3.81-4.98,2.94-13.22-.13-18.57-1.41-2.46-4.06-4.71-9.35-9.22-5.41-4.6-6.32-4.44-8.39-7.24-2.79-3.76-1.98-5.18-5.36-10.29-3.11-4.69-4.27-4.21-5.08-6.8-1.84-5.88,3.62-10,1.62-13.05Z"/>
    <path class="cls-2" d="M96.43,503.1c-.56.31,2.37,4.58,4.61,11.46,1.15,3.53.75,3.54,2.15,8.26,1.75,5.94,2.63,8.91,4.82,11.96,1.49,2.08,4.09,5.7,8.85,7.27,1.32.43,5.65,1.68,9.84-.29,4.4-2.07,7.77-7.25,6.19-11.49-.55-1.48-1.79-3.06-3.38-4.04-1.78-1.09-2.99-.81-4.99-1.39-2.03-.59-3.58-1.93-6.6-4.58-5.67-4.97-5.66-6.54-9.48-8.77-2.46-1.44-2.66-.91-5.16-2.48-4.53-2.85-6.39-6.18-6.87-5.91Z"/>
    <path class="cls-2" d="M346.54,530.49c3.96-3.41,6.49-6.72,15.27-14.1,2.77-2.33,4.98-4.19,8.11-6.4,7.61-5.37,11.41-8.06,17.3-9.76,9.08-2.63,13.29-.52,28.14-3.55,9.24-1.89,11.89-3.58,13.74-5.65,4.68-5.22,5.31-13.97,2.25-16.2-1.91-1.39-3.81.82-7.51-.59-3.15-1.2-4.86-3.99-7.27-7.91-2.27-3.7-3.57-5.82-3.08-8.11.48-2.23,2.22-2.68,6.19-5.66,3.96-2.97,10.18-7.64,9.05-11.12-.55-1.7-2.7-2.59-4-3.13-3.94-1.63-6.59-.27-10.81.03-6.61.47-7.06-2.36-17.14-3.21-5-.42-9.63-.76-11.11,1.69-.25.41-.71,1.39.98,7.5,1.93,7.01,3.24,8.26,2.45,10.01-.89,1.98-3.24,1.9-9.6,3.62-5.9,1.6-8.85,2.4-11.21,3.85-4.26,2.63-3.39,4.82-10.05,13.85-5.67,7.68-8.21,8.68-10.06,9.02-.28.05-5.77.99-9.17-2.2-1.01-.94-2.82-3.18-1.2-17.65,1-8.96,1.55-13.53,4.27-17.83.83-1.31,3.1-4.65,7.25-7.56,5.16-3.62,10.26-4.52,15.13-5.38.73-.13,6.8-1.18,7.09-.41.24.65-3.63,2.32-6.2,3.25-5.03,1.82-7.63,1.71-10.37,2.45-6.89,1.86-10.5,8-12.16,10.83-1.32,2.25-.54,1.71-3.45,20.84-.4,2.61-.86,5.54,1.01,7.92,1.54,1.96,4.22,2.96,6.48,2.91.98-.02,3.59-.28,8.23-5.89,4.91-5.92,4.4-8.54,8.97-13.36,1.6-1.69,3.41-3.6,6.4-5.16,7.87-4.11,14.72-1.03,16.08-4.12,1.14-2.58-3.63-4.76-3.44-10.69.06-2.04.69-3.71-.13-6.49-.23-.78-.71-2.39-1.81-3.68-2.07-2.41-5.15-2.32-12.23-3.07-7.93-.84-6.72-1.23-13.25-1.75-7.13-.57-10.7-.85-12.27-.07-6.67,3.3-6.93,14.51-7.04,19.75-.08,3.52.95,7.13.44,7.21-.5.08-1.78-2.61-2.44-5.19-.65-2.54-.52-4.45-.25-8.16.33-4.53.49-6.79,1.45-9.55,1.01-2.93,2.01-3.97,1.35-4.97-.97-1.49-4.85-1.84-6.8-.25-1.99,1.63-1.04,4.56-.15,11.98,1.14,9.56,1.73,15.02-.37,20.71-1.12,3.03-2.85,5.7-3.78,7.02-1.64,2.34-3.26,4-6.5,7.32-3.84,3.93-5.29,4.99-6.22,7.66-.76,2.18.49,3.62-.67,4.9-1.14,1.25-2.53.58-4.77,2.38-.53.42-1.01.91-1.98,1.41-1.09.56-2.36.9-2.54.63-.24-.35,1.68-1.24,1.66-2.91,0-.13-.02-.9-.58-1.54-.71-.81-1.88-.94-2.88-1.05-1.23-.13-1.68.08-1.77-.09-.25-.51,3.37-3.05,4.67-2.14.19.13.21.25.73,1.61.8,2.1.92,2.26,1.11,2.39.9.59,2.64-.1,3.59-1.14.46-.5.67-1.14,1.08-2.43.4-1.22.72-2.26.74-3.69.02-1.56.02-2.34-.45-2.66-1.06-.71-2.82,2.03-7.57,3.78-1.16.43-2.03.63-3.61,1.38-1.93.94-3.56,1.72-3.5,2.78.05.88,1.22,1.04,3.04,3.14.84.97,1.49,1.73,1.68,2.74.22,1.2-.3,2.26-1.19,3.47-2.06,2.83-3.98,5.47-7.96,6.28-4.63.95-8.8-1.23-8.78-1.44.02-.16,2.6.74,5.94.08,2.72-.54,4.36-1.8,4.74-2.1,1.32-1.05,2.02-2.17,2.48-2.93,1-1.63,1.54-2.53,1.38-3.72-.18-1.36-1.05-1.22-2.49-3.98-.7-1.35-.79-1.95-1.66-2.99-.09-.1-.6-.61-1.63-1.63-1.13-1.11-1.42-1.38-1.68-1.31-.36.1-.48.83-.36,1.43.11.53.4.87,1.71,2.26,1.12,1.18,1.42,1.47,1.55,2.01.15.64.02,1.41-.29,1.46-.39.07-.72-1.04-2.19-2.82-.96-1.17-1.19-1.14-1.46-1.8-.48-1.13-.02-1.72-.61-2.49-.39-.5-1.14-.97-1.72-.82-.68.17-.53,1.06-1.35,2.63-.75,1.43-1.1,1.15-1.59,2.35-.47,1.17-.21,1.63-.83,2.89-.3.61-.4.58-.9,1.42-.87,1.45-1.31,2.17-1.33,2.98-.05,2.2,2.58,3.99,2.71,4.08,1.17.78,2.19.89,2.16,1.04-.03.21-1.96.26-3.79-.64-.53-.26-2.16-1.07-2.98-2.86-.19-.41-.68-1.54-.35-2.87.45-1.81,2.45-2.53,2.36-2.66-.1-.15-2.32,1.41-5.49,2.16-1.88.45-3.23.77-4.81.22-1.71-.6-1.98-1.62-3.89-2.04-1.45-.32-2.67-.02-3.02.07-1.68.42-1.64,1.15-2.99,1.43-1.84.37-2.41-.88-4.03-.5-1.19.27-1.92,1.18-3.28,2.89-.86,1.08-.8,1.31-1.54,2.04-.99.98-1.98,1.46-2.82,1.85-1.53.72-2.96,1.39-4.77,1.16-1.41-.18-2.07-.78-2.3-.52-.41.47,1.3,2.75,3.2,4.4,1.42,1.23,2.72,1.92,4.08,2.63,1.93,1.02,2.98,1.57,4.42,1.87,2.43.51,4.3-.05,6.36-.65,2.23-.66,6.04-2.18,5.76-3.38-.2-.85-2.25-.71-3.2-2.38-.54-.95-.5-2.1-.2-2.2.26-.09.57.64,1.69,1.49.49.37.95.6,1.88,1.07,1.79.91,2.08.84,2.28,1.18.55.93-.84,2.73-2.17,3.85-2.3,1.95-4.98,2.35-7.54,2.7-3.16.43-5.55.75-8.27-.35-2.95-1.2-3.87-3.1-5.13-2.72-1.45.44-.55,3.04-2.22,6.01-1.5,2.67-4.71,4.96-7.86,4.65-2.33-.23-2.39-1.66-5.02-2.16-3.35-.63-4.23,1.5-8.55,1.71-3.98.19-7.21-1.44-7.2-1.52,0-.06,1.92.61,4.53.41,1.39-.11,2.42-.42,3.3-.69,3.16-.98,3.49-1.96,5.34-1.82.59.05,1.27.23,2.63.59.52.14,1.03.29,2.39.73,3.4,1.1,3.39,1.19,3.83,1.17,1.64-.09,2.71-1.42,3.33-2.19.58-.72.93-1.63,1.62-3.43.69-1.81,1.03-2.71,1.05-3.37.06-2.61-1.97-5.31-2.86-5.17-.87.14-.17,2.89-1.41,3.37-1.71.65-5.6-3.54-5.29-3.98.15-.21,1.44.21,2.37.97.67.55.89,1.06,1.26,1.03.43-.03.82-.76.69-1.35-.28-1.27-3.08-2.56-4.63-1.8-1.27.62-1.36,2.45-1.46,4.69-.14,3.19.67,5.11.31,5.2-.42.11-2.46-2.3-2.29-4.81.1-1.56,1.01-2.2.82-4.07-.11-1.07-.5-1.87-.71-2.28-1.19-2.36-4.05-4.86-6.01-4.4-.9.21-1.1.92-2.54,4.09-2.15,4.71-3.22,7.06-4.21,8.43-1.36,1.9-2.27,2.52-2.67,4.36-.26,1.22-.24,2.68-.77,2.75-.31.04-.42-.45-1.07-.85-.86-.53-1.48-.19-3.37-.36-1.52-.14-1.46-.39-1.96-.27-1.83.44-2.01,3.69-2.51,3.6-.41-.08-.02-2.21-1.28-4.66-.45-.87-.93-1.44-1.44-2.04-1.54-1.82-2.97-3.5-4.71-3.45-1.78.05-3.53,1.92-3.21,3.34.4,1.78,3.83,1.94,4.29,4,.25,1.12-.5,2.3-.91,2.26-.29-.03-.32-.66-1.04-1.93-.43-.77-1.02-1.81-1.64-1.8-.32,0-.53.28-.65.45-.62.83.03,1.71-.54,2.44-.27.35-.78.58-1.01.44-.32-.2.05-1-.04-2.55-.03-.57-.09-1.54-.37-1.61-.37-.1-.55,1.54-1.86,3.15-1.3,1.59-2.42,1.57-2.71,2.83-.16.71-.04,1.72.54,2.45,1.49,1.88,4.6.16,10.07,1.38,3.33.75,3.66,1.72,5.91,1.58,3.44-.22,5.4-2.66,5.73-2.3.27.29-.81,2.13-2.74,2.9-.3.12-1.12.41-2.78.35-1.98-.08-2.87-.57-4.86-1.07-1.29-.33-4.08-.92-7.29-.72-1.5.09-2.43.15-3.67.51-1.62.47-2.6,1.12-2.97.76-.39-.37.59-1.2.3-2.3-.33-1.21-1.97-1.83-4.78-2.89-1.96-.74-2.95-1.1-3.5-.67-.97.74-.2,3.1-.16,3.21.51,1.49,1.41,2.01,1.18,2.42-.35.63-2.84.26-3.29-.74-.18-.4.09-.63.28-2.06.06-.42.13-.99.11-1.46-.07-1.24-.88-2.21-1.43-2.88-.51-.61-4.36-5.18-6.58-4.34-.21.08-.67.58-1.61,1.58-.86.92-1.29,1.39-1.42,1.76-.31.92.05,1.83.59,3.15.91,2.21,1.89,2.91,1.56,3.61-.28.58-1.29.82-1.76.5-.39-.26-.15-.74-.54-2.03-.24-.79-.46-1.5-1.07-1.86-.49-.29-.93-.19-1-.4-.13-.37,1.19-.76,1.1-1.24-.07-.35-.87-.7-1.48-.54-.88.22-1.1,1.45-1.16,1.8-.21,1.19.36,1.47.09,2.23-.41,1.18-1.96,1.05-2.05,1.96-.04.45.39.92,1.25,1.87.77.84,1.5,1.64,1.87,1.49.58-.23-.19-2.59.2-2.68.19-.05.45.52,1.26,1.45.64.73,1.11,1.26,1.77,1.52.5.2.99.21,1.98.03,2.78-.52,3.18-1.43,4.44-1.23,1.24.19,1.2,1.11,2.72,1.81,2.68,1.23,5.44-.37,5.61,0,.13.29-1.35,1.57-3.4,1.74-1.33.11-1.68-.35-4.55-.76-1.32-.19-2-.28-2.97-.25-1.83.06-2.05.5-3.77.55-1.31.03-2.36.06-3.39-.53-1.73-.99-1.84-2.83-2.87-2.9-.48-.03-.84.38-1.53,1.2-1.5,1.78-1.3,2.72-2.25,3.22-.73.38-1.64.12-3.45-.39-2.41-.69-4.72-1.97-4.66-2.15,0,0,0,0,0,0,.22-.2,2.7.64,3.66.93,1.75.53,2.63.79,3.49.5.95-.32,1.75-1.2,1.92-2.28.04-.27.11-.95-.23-1.71-.26-.57-.65-.96-1.82-1.8-1.19-.85-2.21-1.47-3.47-2.17-2.27-1.27-2.61-1.33-2.97-1.26-1.33.25-1.84,2.03-1.89,2.21-.45,1.66.57,2.42.14,3.95-.41,1.47-1.76,2.22-2.06,2.38-1.16.64-2.06.46-5.44.42-4.49-.05-4.84.25-4.93.5-.31.83,1.98,1.77,3.18,4.05,1.72,3.3-.05,7.04-.31,7.6-1.91,4.12-5.87,5.01-5.31,6.51.33.89,2.69,1.36,3.46,1.51.27.05.47.08.62.1.2.03,2.46.4,4.1-.17,2.21-.77,3.3-2.59,3.56-2.39.28.21-1.44,2.08-.74,3.39.35.67,1.18.91,1.99,1.13,0,0,.16.05.33.08,3.27.72,6.33-.81,6.33-.81,1.93-.97,2.39-2.03,3.07-1.74.77.34.22,1.72,1.2,2.9.9,1.08,2.64,1.16,6.12,1.33.59.03,1.68.23,2.97-.05.52-.11.87-.18,1.27-.42,1.17-.69.7-1.69,1.81-2.34.84-.49,1.77-.52,2.69-.55.76-.02.89.08.94.15.34.5-1.62,1.54-1.43,2.35.17.73,1.85.98,2.32,1.05,8.07,1.19,17.08-.65,17.08-.65,1.03-.21,2.28-.49,3.8-1.11,1-.41,2.76-1.23,4.62-2.71,3.19-2.55,2.63-3.85,4.9-4.96,2.52-1.24,5.88-.95,6.33,0,.09.19.2.71-3.23,3.8-3.22,2.91-4.89,3.87-4.63,4.38.44.89,6.1-1.07,6.37-.51.3.64-6.31,4.51-8.18,2.85-1.08-.96.08-3.18-.81-3.78-.97-.65-2.78,2.34-6.35,3.91-1.03.45-2.35.85-6.79,1.02-8.87.34-12.06-.94-19.55-.47-2.94.18-4.41.27-5.6.52-3.2.66-5.39,1.79-6.18.96-.6-.64.26-1.74-.41-2.52-.67-.77-2.17-.4-3.53-.27-4.21.42-4.84-1.62-9.11-1.52-3.92.09-4.38,1.83-7.01,1.09-2.44-.69-2.46-2.31-4.98-3.46-3.54-1.62-5.05.88-9.38.06-5.3-1.01-9.01-5.9-10.07-7.28-2.38-3.13-3.57-6.57-3.82-6.49-.2.07,1.08,2.12.59,4.5-.36,1.73-1.27,1.79-1.47,3.31-.32,2.33,1.54,4.51,2.19,5.27,1.71,2.01,3.86,2.8,5.22,3.31,7.22,2.7,10.83,4.05,12.5,4.4,17.32,3.6,27.43,4.34,27.43,4.34,12.23.9,25.22,1.86,42.58.38,14.45-1.24,13.94-2.62,30.98-4.6,15.53-1.8,19.89-1.1,29.85-1.46,5.37-.19,8.5-.34,11.51-.76,9.9-1.38,10.44-4.83,25.92-11.08,10.09-4.08,15.14-6.11,18.43-6.74,2.82-.54,6.27-.96,9.38-3.58,3.71-3.13,4.12-7,5.2-6.74,1.37.33,3.17,7.24.05,11.37-.72.95-1.91,2.03-14.62,5.62-3.66,1.03-3.99,1.06-5.81,1.62-3.06.94-12.94,3.93-12.62,5.11.3,1.12,9.81.96,18.76-.49,8.76-1.42,23.84-3.87,36.02-14.37Z"/>
    <text class="cls-4" transform="translate(130.28 226.96) scale(1.07 1)"><tspan x="0" y="0">sca</tspan></text>
    <text class="cls-1" transform="translate(355.18 226.96)"><tspan x="0" y="0"> </tspan></text>
    <text class="cls-3" transform="translate(133.49 325.5)"><tspan class="cls-7" x="0" y="0">v</tspan><tspan class="cls-6" x="67.8" y="0">en</tspan><tspan class="cls-5" x="212.45" y="0"> </tspan></text>
    <text class="cls-3" transform="translate(141.04 428.3)"><tspan class="cls-6" x="0" y="0">g</tspan><tspan class="cls-7" x="71.28" y="0">e</tspan><tspan class="cls-6" x="136.13" y="0">r</tspan><tspan class="cls-5" x="194.2" y="0"> </tspan></text>
  </g>
</svg>